<?xml version="1.0" ?><svg data-name="Layer 1" id="Layer_1" viewBox="0 0 128 128" xmlns="http://www.w3.org/2000/svg"><defs><style>.cls-1{fill:none;stroke:#efefef;stroke-linecap:round;stroke-linejoin:round;stroke-width:2px;}</style></defs><title/><path class="cls-1" d="M10.3,77.69a12.29,12.29,0,0,1-.09-1.49"/><path class="cls-1" d="M22.5,88.48a12.25,12.25,0,0,1-11-6.77"/><circle class="cls-1" cx="22.5" cy="76.2" r="18.58" transform="translate(-56.21 65.37) rotate(-65.72)"/><path class="cls-1" d="M114.19,67.51a12.27,12.27,0,0,1,3,12.56"/><circle class="cls-1" cx="105.5" cy="76.2" r="18.58"/><line class="cls-1" x1="46.87" x2="27.88" y1="72.22" y2="34.48"/><line class="cls-1" x1="53.3" x2="48.87" y1="85.01" y2="76.2"/><polyline class="cls-1" points="33.75 46.15 22.57 76.2 43.89 76.2"/><line class="cls-1" x1="105.7" x2="84.72" y1="76.2" y2="34.48"/><path class="cls-1" d="M84.72,34.48H97.48a5.83,5.83,0,0,1,5.81,5.82h0a5.82,5.82,0,0,1-5.81,5.81"/><line class="cls-1" x1="33.95" x2="90.32" y1="45.61" y2="45.61"/><line class="cls-1" x1="23.59" x2="36.61" y1="34.48" y2="34.48"/><line class="cls-1" x1="47.82" x2="60.84" y1="34.48" y2="34.48"/><path class="cls-1" d="M52.74,77.28A4,4,0,1,1,50,72.37,4,4,0,0,1,52.74,77.28Z"/><line class="cls-1" x1="50.4" x2="56.63" y1="85.47" y2="85.47"/><line class="cls-1" x1="77.38" x2="72.95" y1="85.01" y2="76.2"/><path class="cls-1" d="M76.82,77.28a4,4,0,1,1-2.75-4.91A4,4,0,0,1,76.82,77.28Z"/><line class="cls-1" x1="74.47" x2="80.71" y1="85.47" y2="85.47"/><line class="cls-1" x1="71.29" x2="52.12" y1="72.6" y2="34.48"/><line class="cls-1" x1="53.18" x2="69.01" y1="76.2" y2="76.2"/><line class="cls-1" x1="92.73" x2="75.57" y1="50.4" y2="73.17"/></svg>